<?xml version="1.0" standalone="no"?><!DOCTYPE svg PUBLIC "-//W3C//DTD SVG 1.1//EN" "http://www.w3.org/Graphics/SVG/1.1/DTD/svg11.dtd"><svg class="icon" width="128px" height="128.00px" viewBox="0 0 1024 1024" version="1.1" xmlns="http://www.w3.org/2000/svg"><path d="M511.999437 511.999437m-511.999437 0a511.999437 511.999437 0 1 0 1023.998874 0 511.999437 511.999437 0 1 0-1023.998874 0Z" fill="#EDEEF0" /><path d="M511.999437 747.519178c133.928813 0 254.50468 57.128897 338.697867 148.356957C832.255085 924.005384 691.752199 1024.377753 513.064396 1023.998874S185.118516 917.113871 173.281089 895.896615C257.474277 804.658315 378.060384 747.519178 511.999437 747.519178z" fill="#8E94B4" /><path d="M511.999437 614.399324a81.91991 81.91991 0 0 1 81.91991 81.91991v81.91991a81.91991 81.91991 0 0 1-163.83982 0v-81.91991a81.91991 81.91991 0 0 1 81.91991-81.91991z" fill="#C7CCD6" /><path d="M266.239707 511.999437V314.132134C266.239707 259.235555 321.791646 204.799775 377.804384 204.799775h268.390105C702.207228 204.799775 757.759166 259.235555 757.759166 314.132134V511.999437H266.239707z" fill="#8E94B4" /><path d="M296.959673 532.479414m-71.679921 0a71.679921 71.679921 0 1 0 143.359842 0 71.679921 71.679921 0 1 0-143.359842 0Z" fill="#C7CCD6" /><path d="M727.0392 532.479414m-71.679921 0a71.679921 71.679921 0 1 0 143.359842 0 71.679921 71.679921 0 1 0-143.359842 0Z" fill="#C7CCD6" /><path d="M511.989197 276.479696c113.110916 0 204.799775 91.688859 204.799775 204.799775v81.919909c0 113.110916-91.688859 204.799775-204.799775 204.799775s-204.799775-91.688859-204.799775-204.799775v-81.919909c0-113.110916 91.699099-204.799775 204.799775-204.799775z" fill="#FFFFFF" /><path d="M363.63224 340.100746v171.478851c0 103.731086 48.517067 193.054508 136.55025 256.409318-48.988106 0-106.669963-26.419171-144.772961-73.277359C325.570202 658.011436 307.199662 626.554191 307.199662 552.314272c0-22.671335-0.911359-68.556725 0.624639-86.886304 7.045112-84.633507 55.807939-125.327222 55.807939-125.327222z" fill="#EDEEF0" /><path d="M511.999437 323.010205c81.39767 0 147.394398-36.843479 147.394398-82.28855V137.164649C591.451509 151.347034 542.320043 158.443346 511.999437 158.443346c-81.39767 0-147.394398 36.843479-147.394398 82.288549S430.601766 323.010205 511.999437 323.010205z" fill="#8E94B4" /></svg>